The World According to Russell Brand {2010}

This is The World According To Russell Brand. Expect a ménage a trois of sexy, dark and hilarious jokes from Britain’s most notorious and talented comedian. In The World According To Russell Brand we’re taken on an irreverent tour of Russell’s scandalous life, delving into childhood memories, travelling experiences and thoughts on sex, lies and being famous. This is the very best of Russell Brand, taken from his Russell Brand Live, Live – Doing Life and Ponderland DVD’s.
 
http://www.imdb.com/name/nm1258970/ 
http://www.themoviedb.org/movie/50385

Complete name                    : C:\Users\Chett\Videos\The World According to Russell Brand {2010} DVDRip~Xvid~Wolftatt2~\The World According to Russell Brand {2010} DVDRip~Xvid~Wolftatt2~.avi
Format                           : AVI
Format/Info                      : Audio Video Interleave
File size                        : 696 MiB
Duration                         : 1h 23mn
Overall bit rate mode            : Variable
Overall bit rate                 : 1 163 Kbps
Writing application              : VirtualDubMod 1.5.10.2 (build 2540/release)
Writing library                  : VirtualDubMod build 2540/release

Video
ID                               : 0
Format                           : MPEG-4 Visual
Format profile                   : Advanced Simple@L5
Format settings, BVOP            : 2
Format settings, QPel            : No
Format settings, GMC             : No warppoints
Format settings, Matrix          : Default (H.263)
Muxing mode                      : Packed bitstream
Codec ID                         : XVID
Codec ID/Hint                    : XviD
Duration                         : 1h 23mn
Bit rate                         : 1 029 Kbps
Width                            : 624 pixels
Height                           : 352 pixels
Display aspect ratio             : 16:9
Frame rate                       : 25.000 fps
Color space                      : YUV
Chroma subsampling               : 4:2:0
Bit depth                        : 8 bits
Scan type                        : Progressive
Compression mode                 : Lossy
Bits/(Pixel*Frame)               : 0.187
Stream size                      : 616 MiB (88%)
Writing library                  : XviD 57

Audio
ID                               : 1
Format                           : MPEG Audio
Format version                   : Version 1
Format profile                   : Layer 3
Mode                             : Joint stereo
Mode extension                   : MS Stereo
Codec ID                         : 55
Codec ID/Hint                    : MP3
Duration                         : 1h 23mn
Bit rate mode                    : Variable
Bit rate                         : 121 Kbps
Nominal bit rate                 : 128 Kbps
Channel(s)                       : 2 channels
Sampling rate                    : 48.0 KHz
Compression mode                 : Lossy
Stream size                      : 72.7 MiB (10%)
Alignment                        : Aligned on interleaves
Interleave, duration             : 24 ms (0.60 video frame)
Interleave, preload duration     : 151 ms
Writing library                  : LAME3.98r
Encoding settings                : -m j -V 4 -q 2 -lowpass 17 --abr 128

Thanks For Downloading!

Please Seed!

~Wolftatt2~